<svg aria-hidden="true" style="position: absolute; width: 0; height: 0; overflow: hidden;" version="1.1" xmlns="http://www.w3.org/2000/svg" xmlns:xlink="http://www.w3.org/1999/xlink">
<defs>
<symbol id="icon-place" viewBox="0 0 22 32">
<path d="M11.2 0c-6.176 0-11.2 4.99-11.2 11.123 0 7.709 11.211 20.877 11.211 20.877s11.189-13.547 11.189-20.877c0-6.133-5.024-11.123-11.2-11.123zM14.579 14.38c-0.932 0.925-2.155 1.388-3.379 1.388s-2.448-0.463-3.379-1.388c-1.863-1.85-1.863-4.861 0-6.712 0.902-0.896 2.103-1.39 3.379-1.39s2.477 0.494 3.379 1.39c1.863 1.851 1.863 4.862 0 6.712z"></path>
</symbol>
<symbol id="icon-search" viewBox="0 0 33 32">
<path d="M21.379 18.809h-1.090l-0.386-0.349c0.862-0.939 1.492-2.045 1.845-3.239s0.42-2.447 0.197-3.668c-0.648-3.596-3.848-6.467-7.71-6.907-1.358-0.161-2.737-0.029-4.032 0.387s-2.471 1.103-3.439 2.011c-0.968 0.907-1.701 2.011-2.144 3.225s-0.584 2.507-0.413 3.781c0.469 3.622 3.531 6.623 7.366 7.23 1.302 0.21 2.638 0.147 3.911-0.184s2.453-0.922 3.454-1.73l0.372 0.362v1.022l5.862 5.497c0.566 0.53 1.49 0.53 2.055 0s0.566-1.397 0-1.927l-5.848-5.51zM13.103 18.809c-3.435 0-6.207-2.6-6.207-5.821s2.772-5.821 6.207-5.821c3.434 0 6.207 2.6 6.207 5.821s-2.772 5.821-6.207 5.821z"></path>
</symbol>
<symbol id="icon-close" viewBox="0 0 32 32">
<path d="M26.667 7.303l-1.97-1.97-7.808 7.808-7.808-7.808-1.97 1.97 7.808 7.808-7.808 7.808 1.97 1.97 7.808-7.808 7.808 7.808 1.97-1.97-7.808-7.808 7.808-7.808z"></path>
</symbol>
</defs>
</svg>
